<svg xmlns="http://www.w3.org/2000/svg" width="26.05" height="24.77" viewBox="0 0 26.05 24.77"><path d="M26.05,16.84a7.64,7.64,0,0,1-.28,2.09,7.93,7.93,0,0,1-7.65,5.84H3.22A2,2,0,0,1,1.4,21.85l1.42-2.92,1.5-3.09.35-.71A7.82,7.82,0,0,0,8,15.84H9.69L8.58,18.11a.58.58,0,0,0,.52.82h7.7l1.5-3.09,3-6.25A7.92,7.92,0,0,1,26,15.84a8.14,8.14,0,0,1,.06,1" style="fill:#fff"/><path d="M22.76,0a2,2,0,0,1,1.82,2.92L23.19,5.78,21.67,8.9l-.33.69a7.84,7.84,0,0,0-3.22-.69H16.58L17.7,6.6a.57.57,0,0,0-.51-.82h-8L7.69,8.9H.06a8.43,8.43,0,0,1-.06-1A8.2,8.2,0,0,1,.28,5.78,8,8,0,0,1,7,0Z" style="fill:#fff"/><path d="M13.06,8.9,9.79,15.62l-.1.22H8a7.82,7.82,0,0,1-3.28-.71A8,8,0,0,1,.06,8.9Z" style="fill:#fff;opacity:0.72"/><path d="M21.34,9.59l-3,6.25H13.21L16.5,9.07l.08-.17h1.54a7.84,7.84,0,0,1,3.22.69" style="fill:#fff;opacity:0.72"/></svg>