<svg xmlns="http://www.w3.org/2000/svg" width="380.71" height="200.9" viewBox="0 0 380.71 200.9"><rect width="380.71" height="200.9" style="fill:#fcfcfc"/><rect x="12.85" y="14.45" width="130" height="173" rx="8.18" style="fill:#5b5b5b"/><text transform="translate(151.97 37.84)" style="font-size:14px;font-family:Lato-Bold, Lato;font-weight:700"><tspan style="letter-spacing:-0.0205078125em">W</tspan><tspan x="14.36" y="0">oodland </tspan><tspan x="68.03" y="0" style="letter-spacing:-0.01904296875em">L</tspan><tspan x="75" y="0">odge and Restau</tspan><tspan x="177.81" y="0" style="letter-spacing:-0.014508928571428572em">r</tspan><tspan x="183.33" y="0">ant</tspan></text><rect x="153.85" y="46.96" width="93.38" height="23.56" rx="3.04" style="fill:#700548"/><path d="M164.81,51.11c.28,0,.56.08.83.14a5.15,5.15,0,0,1,3.88,4.29,6,6,0,0,1-.36,2.87,15.63,15.63,0,0,1-1.7,3.27c-.8,1.24-1.69,2.41-2.52,3.62a1.43,1.43,0,0,1-.14.2.41.41,0,0,1-.71,0c-.19-.25-.36-.51-.54-.77-.79-1.13-1.61-2.23-2.34-3.4a14.48,14.48,0,0,1-1.57-3.18,5.3,5.3,0,0,1-.09-3.43,5.08,5.08,0,0,1,4.09-3.55l.43-.06Zm-4.64,5.29a4.88,4.88,0,0,0,.16,1.05,10.94,10.94,0,0,0,1.19,2.74c.85,1.48,1.89,2.84,2.86,4.24.07.09.09,0,.14,0,.7-1,1.43-2,2.11-3a15.78,15.78,0,0,0,1.71-3.22,5.22,5.22,0,0,0,.34-2.47A4.26,4.26,0,0,0,164,52,4.31,4.31,0,0,0,160.17,56.4Z" style="fill:#fff"/><path d="M164.43,58.8A2.56,2.56,0,1,1,167,56.25,2.56,2.56,0,0,1,164.43,58.8Zm-1.7-2.56a1.71,1.71,0,1,0,1.72-1.71A1.72,1.72,0,0,0,162.73,56.24Z" style="fill:#fff"/><text transform="translate(176.52 62.84)" style="font-size:11.094340324401855px;fill:#fff;font-family:Lato-Bold, Lato;font-weight:700">0.1 km Aw<tspan x="51.76" y="0" style="letter-spacing:-0.01795679095599952em">a</tspan><tspan x="57.37" y="0">y</tspan></text><rect x="252.78" y="46.96" width="48.08" height="23.56" rx="2.89" style="fill:#700548"/><text transform="translate(281.92 62.84)" style="font-size:11.094340324401855px;fill:#fff;font-family:Lato-Bold, Lato;font-weight:700">26</text><path d="M267.26,59.61h7.5c.14,0,.2,0,.2.19,0,1.08,0,2.16,0,3.23a.7.7,0,0,1-.6.75.69.69,0,0,1-.77-.7c0-.34,0-.68,0-1s0-.24-.23-.24h-6.18l-7.4,0c-.22,0-.22,0-.22.22s0,.71,0,1.06a.69.69,0,0,1-.56.68.7.7,0,0,1-.75-.39.83.83,0,0,1-.06-.35V54.24a.69.69,0,0,1,1.27-.41.84.84,0,0,1,.1.46v5.15c0,.16,0,.21.21.21h7.5Z" style="fill:#f9f9f9"/><path d="M269.73,59.06h-5c-.17,0-.2,0-.2-.21,0-.76,0-1.53,0-2.29A1.34,1.34,0,0,1,266,55.13q3.07,0,6.17,0a2.7,2.7,0,0,1,2.77,2.32A11,11,0,0,1,275,59c0,.07,0,.1-.11.09h-5.12Z" style="fill:#f9f9f9"/><path d="M263.77,57.09a1.67,1.67,0,1,1-1.67-1.67A1.66,1.66,0,0,1,263.77,57.09Z" style="fill:#f9f9f9"/><text transform="translate(178.79 176.65)" style="font-size:23.580150604248047px;font-family:Lato-Bold, Lato;font-weight:700">89 /hr</text><path d="M166.24,160.1a8.23,8.23,0,0,1,1.12,2.46c0,.2.19.15.31.15,1.25,0,2.5,0,3.75,0a1.18,1.18,0,0,1,1.24.83,1.27,1.27,0,0,1-1.25,1.75c-1.24,0-2.49,0-3.74,0-.2,0-.28.06-.32.26A6.64,6.64,0,0,1,161,170.5h-.68c0,.15.12.2.2.28l5.22,5.23a1.25,1.25,0,0,1,.16,1.8,1.23,1.23,0,0,1-1.87.11c-.55-.53-1.08-1.07-1.62-1.61l-6.14-6.13a1.24,1.24,0,0,1-.36-1.41,1.16,1.16,0,0,1,1.23-.87c1.32,0,2.64,0,4,0a3.86,3.86,0,0,0,3.46-2.25c.17-.33.15-.34-.21-.34h-7.19a1.27,1.27,0,0,1-1.28-1.72,1.18,1.18,0,0,1,1-.85h7.46c.36,0,.38,0,.21-.35a3.86,3.86,0,0,0-3.46-2.25c-1.31,0-2.62,0-3.93,0a1.27,1.27,0,0,1-1.29-1.72,1.1,1.1,0,0,1,.91-.83,2.47,2.47,0,0,1,.54-.05h13.85a2.61,2.61,0,0,1,.4,0,1.22,1.22,0,0,1,1.11,1.41,1.19,1.19,0,0,1-1.26,1.17c-1.61,0-3.22,0-4.84,0Z"/><polygon points="160.46 79.01 162.44 83.01 166.86 83.65 163.66 86.77 164.41 91.17 160.46 89.1 156.5 91.17 157.26 86.77 154.06 83.65 158.48 83.01 160.46 79.01" style="fill:#ffcb00"/><polygon points="176.71 79.01 178.69 83.01 183.1 83.65 179.91 86.77 180.66 91.17 176.71 89.1 172.75 91.17 173.51 86.77 170.31 83.65 174.73 83.01 176.71 79.01" style="fill:#ffcb00"/><polygon points="192.96 79.01 194.93 83.01 199.35 83.65 196.16 86.77 196.91 91.17 192.96 89.1 189 91.17 189.76 86.77 186.56 83.65 190.98 83.01 192.96 79.01" style="fill:#ffcb00"/><polygon points="209.21 79.01 211.18 83.01 215.6 83.65 212.41 86.77 213.16 91.17 209.21 89.1 205.25 91.17 206.01 86.77 202.81 83.65 207.23 83.01 209.21 79.01" style="fill:#ffcb00"/><polygon points="225.46 79.01 227.43 83.01 231.85 83.65 228.65 86.77 229.41 91.17 225.46 89.1 221.5 91.17 222.26 86.77 219.06 83.65 223.48 83.01 225.46 79.01" style="fill:#9daadd;opacity:0.30000000000000004"/><text transform="translate(237.85 88.79)" style="font-size:8px;font-family:Lato-Regular, Lato;letter-spacing:0.0250244140625em">165+ r<tspan x="24.53" y="0" style="letter-spacing:0.0120849609375em">e</tspan><tspan x="28.82" y="0">views</tspan></text><rect x="155.85" y="104.45" width="199" height="41" style="fill:#e5e5e5"/></svg>